<?xml version="1.0" standalone="no"?>
<!DOCTYPE svg PUBLIC "-//W3C//DTD SVG 20010904//EN"
 "http://www.w3.org/TR/2001/REC-SVG-20010904/DTD/svg10.dtd">
<svg version="1.0" xmlns="http://www.w3.org/2000/svg"
 width="367.000000pt" height="188.000000pt" viewBox="0 0 367.000000 188.000000"
 preserveAspectRatio="xMidYMid meet">

<g transform="translate(0.000000,188.000000) scale(0.100000,-0.100000)"
fill="#000000" stroke="none">
<path d="M1380 1011 l0 -251 25 0 25 0 0 200 c0 110 3 200 8 200 4 0 43 -89
87 -198 49 -120 85 -197 94 -197 8 0 45 78 95 197 l81 197 3 -199 2 -200 30 0
30 0 0 251 0 250 -42 -3 -42 -3 -75 -182 c-41 -101 -78 -183 -82 -183 -3 0
-40 82 -82 183 l-75 182 -41 3 -41 3 0 -250z"/>
<path d="M2014 1243 c4 -10 48 -123 99 -251 l92 -233 39 3 39 3 98 244 c55
134 99 246 99 248 0 1 -14 3 -31 3 -35 0 -29 11 -134 -258 -37 -95 -70 -170
-74 -167 -3 4 -42 100 -87 213 l-80 207 -34 3 c-28 3 -32 1 -26 -15z"/>
<path d="M1920 1005 c0 -157 4 -245 10 -245 6 0 10 88 10 245 0 157 -4 245
-10 245 -6 0 -10 -88 -10 -245z"/>
<path d="M932 538 c4 -122 21 -134 28 -21 l5 78 31 -73 c17 -40 35 -74 40 -74
5 0 22 32 38 71 15 39 31 71 35 71 3 0 6 -33 6 -72 0 -116 20 -98 23 20 2 94
1 102 -16 102 -14 0 -27 -18 -49 -71 -16 -39 -33 -70 -38 -70 -4 0 -21 32 -37
70 -23 53 -35 71 -49 71 -18 0 -20 -7 -17 -102z"/>
<path d="M1241 618 c-5 -13 -23 -58 -40 -101 -35 -87 -35 -87 -21 -87 6 0 15
11 20 25 9 23 15 25 65 25 50 0 56 -2 65 -25 11 -29 34 -35 25 -6 -3 10 -21
56 -39 102 -36 88 -59 109 -75 67z m43 -41 c32 -78 32 -77 -19 -77 -43 0 -46
2 -39 22 12 37 34 88 39 88 3 0 11 -15 19 -33z"/>
<path d="M1390 541 c0 -100 16 -150 22 -69 4 63 33 63 77 1 19 -26 36 -42 38
-36 3 7 -5 26 -17 43 l-22 31 26 24 c55 51 19 105 -69 105 l-55 0 0 -99z m114
63 c19 -18 19 -20 6 -45 -8 -14 -21 -19 -55 -19 l-45 0 0 40 c0 40 0 40 39 40
23 0 46 -7 55 -16z"/>
<path d="M1570 630 c0 -5 16 -10 35 -10 l35 0 0 -96 c0 -61 4 -93 10 -89 6 3
10 46 10 96 l0 89 30 0 c17 0 30 5 30 10 0 6 -32 10 -75 10 -43 0 -75 -4 -75
-10z"/>
<path d="M1770 534 c0 -67 4 -103 10 -99 6 3 10 50 10 106 0 59 -4 99 -10 99
-6 0 -10 -42 -10 -106z"/>
<path d="M1840 541 c0 -56 4 -103 10 -106 6 -4 10 23 10 74 0 45 4 81 8 81 5
0 34 -36 66 -80 31 -44 62 -78 67 -75 12 8 12 205 -1 205 -5 0 -10 -37 -12
-82 l-3 -83 -59 83 c-33 45 -65 82 -73 82 -10 0 -13 -24 -13 -99z"/>
<path d="M2130 632 c0 -12 70 -186 78 -194 15 -15 33 12 71 105 27 65 35 97
27 97 -7 0 -28 -38 -46 -85 -18 -47 -36 -85 -40 -85 -3 0 -21 38 -39 85 -18
47 -36 85 -42 85 -5 0 -9 -4 -9 -8z"/>
<path d="M2350 540 l0 -100 68 2 67 2 -57 3 -58 4 0 39 0 40 55 0 c30 0 55 5
55 10 0 6 -25 10 -55 10 l-55 0 0 35 0 35 55 0 c30 0 55 5 55 10 0 6 -28 10
-65 10 l-65 0 0 -100z"/>
<path d="M2573 628 c-24 -11 -53 -64 -53 -96 0 -10 10 -34 23 -53 30 -45 83
-60 132 -36 31 15 35 21 35 57 l0 40 -44 0 c-25 0 -48 -4 -51 -10 -4 -6 10
-10 34 -10 37 0 41 -2 41 -25 0 -47 -71 -61 -115 -22 -47 40 -34 120 22 143
30 13 38 13 65 -1 36 -17 52 -10 24 11 -23 16 -81 17 -113 2z"/>
<path d="M2776 545 c-21 -52 -36 -100 -33 -107 2 -8 10 -2 17 15 12 25 18 27
72 27 43 0 58 -4 58 -14 0 -15 30 -44 30 -30 0 5 -16 53 -37 107 -26 66 -43
97 -54 97 -10 0 -28 -31 -53 -95z m77 18 c9 -27 17 -51 17 -55 0 -5 -18 -8
-40 -8 -25 0 -40 5 -40 12 0 19 32 98 39 98 4 0 15 -21 24 -47z"/>
</g>
</svg>
